<svg width="64" height="64" viewBox="0 0 64 64" fill="none" xmlns="http://www.w3.org/2000/svg">
  <defs>
    <linearGradient id="racket" x1="0" y1="0" x2="1" y2="1">
      <stop offset="0" stop-color="#eaff8f"/>
      <stop offset="1" stop-color="#c3e830"/>
    </linearGradient>
    <linearGradient id="ball" x1="0" y1="0" x2="1" y2="1">
      <stop offset="0" stop-color="#7cc4ff"/>
      <stop offset="1" stop-color="#2f7de1"/>
    </linearGradient>
  </defs>
  <rect width="64" height="64" rx="14" fill="#0a1425"/>
  <g transform="translate(8 6) rotate(-24 21 20)">
    <rect x="8" y="1" width="26" height="33" rx="13" fill="url(#racket)"/>
    <g fill="#0a1425">
      <circle cx="16" cy="11" r="1.7"/><circle cx="21" cy="11" r="1.7"/><circle cx="26" cy="11" r="1.7"/>
      <circle cx="16" cy="17" r="1.7"/><circle cx="21" cy="17" r="1.7"/><circle cx="26" cy="17" r="1.7"/>
      <circle cx="16" cy="23" r="1.7"/><circle cx="21" cy="23" r="1.7"/><circle cx="26" cy="23" r="1.7"/>
    </g>
    <rect x="18" y="33" width="6" height="12" rx="3" fill="url(#racket)"/>
  </g>
  <circle cx="47" cy="47" r="8" fill="url(#ball)"/>
  <path d="M41.5 44a8 8 0 0 1 11 0" stroke="#0a1425" stroke-width="1.6" fill="none"/>
  <path d="M41.5 50a8 8 0 0 0 11 0" stroke="#0a1425" stroke-width="1.6" fill="none"/>
</svg>
